<svg width="40" height="40" viewBox="0 0 40 40" fill="none" xmlns="http://www.w3.org/2000/svg">
<rect x="0.693359" y="0.173828" width="39.1452" height="39.1452" rx="5.2899" fill="white"/>
<path d="M12.332 23.7306C12.569 26.7522 15.4721 29.5961 19.649 29.5961C24.2703 29.5961 27.0252 26.4856 27.0252 22.9012C27.0252 18.7835 24.2999 16.4729 20.4488 16.4729C19.175 16.4729 17.8124 16.8876 16.9829 17.6578L17.9309 13.4217H25.9884V9.89648H15.1463L12.8653 19.7611C13.28 19.8796 16.2127 20.8868 16.5978 21.0349C17.2199 20.3239 18.2567 19.7315 19.5601 19.7315C21.3376 19.7315 22.9668 20.7683 22.9668 22.9604C22.9668 24.8859 21.4857 26.1005 19.649 26.1005C17.605 26.1005 16.2423 24.6489 16.1535 22.8715L12.332 23.7306Z" fill="url(#paint0_linear_487_11849)"/>
<defs>
<linearGradient id="paint0_linear_487_11849" x1="15.7704" y1="-44.0803" x2="43.512" y2="-41.2009" gradientUnits="userSpaceOnUse">
<stop stop-color="#317E7E"/>
<stop offset="0.973958" stop-color="#628AAB"/>
</linearGradient>
</defs>
</svg>
