<svg width="446" height="40" viewBox="0 0 446 40" fill="none" xmlns="http://www.w3.org/2000/svg">
<path d="M0.212891 25.229C0.465917 27.5906 2.61664 31.639 8.85796 31.639C14.298 31.639 16.9126 28.181 16.9126 24.8073C16.9126 21.771 14.8462 19.2829 10.7557 18.4395L7.80368 17.8069C6.66506 17.5961 5.90598 16.9635 5.90598 15.9514C5.90598 14.7706 7.08677 13.885 8.56276 13.885C10.9243 13.885 11.8099 15.4453 11.9786 16.6683L16.6596 15.614C16.4066 13.379 14.4245 9.62573 8.52059 9.62573C4.05046 9.62573 0.761114 12.7042 0.761114 16.4153C0.761114 19.3251 2.57447 21.7288 6.58072 22.6144L9.32184 23.247C10.9243 23.5844 11.5569 24.3434 11.5569 25.2712C11.5569 26.3676 10.6713 27.3376 8.81579 27.3376C6.36987 27.3376 5.1469 25.8194 5.02039 24.1747L0.212891 25.229Z" fill="white"/>
<path d="M34.8366 31.0065H40.1924C40.108 30.2895 39.9815 28.8557 39.9815 27.2532V10.2583H34.3728V22.3192C34.3728 24.723 32.9389 26.4098 30.4509 26.4098C27.8363 26.4098 26.6555 24.5543 26.6555 22.2349V10.2583H21.0467V23.3735C21.0467 27.8858 23.9143 31.5547 28.9327 31.5547C31.1256 31.5547 33.5293 30.7113 34.668 28.7714C34.668 29.6148 34.7523 30.5847 34.8366 31.0065Z" fill="white"/>
<path d="M51.5759 39.019V28.9822C52.588 30.3739 54.6966 31.5125 57.5642 31.5125C63.426 31.5125 67.3479 26.8737 67.3479 20.5902C67.3479 14.4332 63.8477 9.79441 57.7751 9.79441C54.6544 9.79441 52.335 11.1861 51.4072 12.7886V10.2583H45.9672V39.019H51.5759ZM61.8235 20.6324C61.8235 24.3434 59.5462 26.4942 56.6786 26.4942C53.811 26.4942 51.4916 24.3013 51.4916 20.6324C51.4916 16.9635 53.811 14.8128 56.6786 14.8128C59.5462 14.8128 61.8235 16.9635 61.8235 20.6324Z" fill="white"/>
<path d="M70.5236 25.3555C70.5236 28.6027 73.2225 31.5969 77.6505 31.5969C80.729 31.5969 82.711 30.163 83.7653 28.5184C83.7653 29.3196 83.8496 30.4582 83.9762 31.0065H89.121C88.9945 30.2895 88.868 28.8136 88.868 27.7171V17.5117C88.868 13.3368 86.4221 9.62573 79.8434 9.62573C74.2768 9.62573 71.2827 13.2103 70.9453 16.4574L75.9215 17.5117C76.0902 15.6984 77.4396 14.138 79.8856 14.138C82.2471 14.138 83.3857 15.361 83.3857 16.837C83.3857 17.5539 83.0062 18.1443 81.8254 18.313L76.7227 19.072C73.2647 19.5781 70.5236 21.6445 70.5236 25.3555ZM78.8313 27.4219C77.0179 27.4219 76.1323 26.2411 76.1323 25.0182C76.1323 23.4157 77.271 22.6144 78.7048 22.4036L83.3857 21.6867V22.6144C83.3857 26.2833 81.1929 27.4219 78.8313 27.4219Z" fill="white"/>
<path d="M99.9616 31.0065V28.4762C101.058 30.2474 103.251 31.5125 106.119 31.5125C112.023 31.5125 115.902 26.8315 115.902 20.548C115.902 14.3911 112.402 9.71007 106.329 9.71007C103.251 9.71007 100.974 11.0595 100.046 12.5355V0.474609H94.5215V31.0065H99.9616ZM110.294 20.5902C110.294 24.3856 108.016 26.4942 105.149 26.4942C102.323 26.4942 99.9616 24.3434 99.9616 20.5902C99.9616 16.7948 102.323 14.7284 105.149 14.7284C108.016 14.7284 110.294 16.7948 110.294 20.5902Z" fill="white"/>
<path d="M119.078 25.3555C119.078 28.6027 121.777 31.5969 126.205 31.5969C129.283 31.5969 131.265 30.163 132.32 28.5184C132.32 29.3196 132.404 30.4582 132.531 31.0065H137.675C137.549 30.2895 137.422 28.8136 137.422 27.7171V17.5117C137.422 13.3368 134.976 9.62573 128.398 9.62573C122.831 9.62573 119.837 13.2103 119.5 16.4574L124.476 17.5117C124.645 15.6984 125.994 14.138 128.44 14.138C130.801 14.138 131.94 15.361 131.94 16.837C131.94 17.5539 131.561 18.1443 130.38 18.313L125.277 19.072C121.819 19.5781 119.078 21.6445 119.078 25.3555ZM127.386 27.4219C125.572 27.4219 124.687 26.2411 124.687 25.0182C124.687 23.4157 125.825 22.6144 127.259 22.4036L131.94 21.6867V22.6144C131.94 26.2833 129.747 27.4219 127.386 27.4219Z" fill="white"/>
<path d="M141.305 25.229C141.558 27.5906 143.708 31.639 149.95 31.639C155.39 31.639 158.004 28.181 158.004 24.8073C158.004 21.771 155.938 19.2829 151.847 18.4395L148.896 17.8069C147.757 17.5961 146.998 16.9635 146.998 15.9514C146.998 14.7706 148.179 13.885 149.655 13.885C152.016 13.885 152.902 15.4453 153.07 16.6683L157.751 15.614C157.498 13.379 155.516 9.62573 149.612 9.62573C145.142 9.62573 141.853 12.7042 141.853 16.4153C141.853 19.3251 143.666 21.7288 147.673 22.6144L150.414 23.247C152.016 23.5844 152.649 24.3434 152.649 25.2712C152.649 26.3676 151.763 27.3376 149.908 27.3376C147.462 27.3376 146.239 25.8194 146.112 24.1747L141.305 25.229Z" fill="white"/>
<path d="M166.522 18.2708C166.649 16.3731 168.251 14.1802 171.161 14.1802C174.366 14.1802 175.716 16.2044 175.8 18.2708H166.522ZM176.348 23.6687C175.673 25.5242 174.24 26.8315 171.625 26.8315C168.842 26.8315 166.522 24.8495 166.396 22.1084H181.24C181.24 22.024 181.324 21.1806 181.324 20.3794C181.324 13.7163 177.487 9.62573 171.077 9.62573C165.763 9.62573 160.871 13.9272 160.871 20.548C160.871 27.5484 165.89 31.639 171.583 31.639C176.686 31.639 179.975 28.6449 181.029 25.0603L176.348 23.6687Z" fill="white"/>
<path d="M212.76 30.2335V26.3232H203.399V9.23048H199.311V30.2335H212.76ZM234.515 30.2335H238.958L230.96 9.23048H226.22L218.162 30.2335H222.487L224.235 25.4345H232.767L234.515 30.2335ZM228.501 13.7629L231.404 21.7019H225.598L228.501 13.7629ZM253.005 30.7075C257.508 30.7075 261.093 27.9525 261.093 22.798V9.23048H257.004V22.5018C257.004 25.2568 255.494 26.7083 253.005 26.7083C250.576 26.7083 249.036 25.2568 249.036 22.5018V9.23048H244.948V22.798C244.948 27.9525 248.532 30.7075 253.005 30.7075ZM287.764 30.2335V9.23048H283.676V23.1239L274.937 9.23048H269.842V30.2335H273.93V15.3329L283.469 30.2335H287.764ZM306.208 30.6778C312.103 30.6778 315.124 26.7675 315.924 23.5386L312.103 22.3833C311.54 24.3384 309.792 26.6787 306.208 26.6787C302.831 26.6787 299.691 24.2199 299.691 19.7468C299.691 14.9774 303.008 12.726 306.149 12.726C309.792 12.726 311.422 14.9478 311.925 16.9622L315.776 15.7476C314.947 12.3409 311.955 8.78613 306.149 8.78613C300.52 8.78613 295.455 13.0519 295.455 19.7468C295.455 26.4417 300.342 30.6778 306.208 30.6778ZM340.828 30.2335V9.23048H336.71V17.6732H327.557V9.23048H323.469V30.2335H327.557V21.5242H336.71V30.2335H340.828ZM369.475 23.746L364.795 9.23048H360.558L355.908 23.6867L352.057 9.23048H347.732L353.567 30.2335H357.833L362.632 15.2737L367.431 30.2335H371.638L377.444 9.23048H373.267L369.475 23.746ZM397.509 30.2335V26.3824H388.444V21.5242H396.65V17.8805H388.444V13.0815H397.509V9.23048H384.356V30.2335H397.509ZM418.898 30.2335V26.3824H409.833V21.5242H418.039V17.8805H409.833V13.0815H418.898V9.23048H405.745V30.2335H418.898ZM439.932 30.2335H445.056L436.673 18.3841L444.997 9.23048H439.635L431.222 18.7396V9.23048H427.134V30.2335H431.222V24.3977L433.829 21.5242L439.932 30.2335Z" fill="#3FCF8E"/>
</svg>
