<svg width="496" height="40" viewBox="0 0 496 40" fill="none" xmlns="http://www.w3.org/2000/svg">
<path d="M0.212891 25.0552C0.465917 27.4168 2.61664 31.4652 8.85796 31.4652C14.298 31.4652 16.9126 28.0072 16.9126 24.6335C16.9126 21.5972 14.8462 19.1091 10.7557 18.2657L7.80368 17.6331C6.66506 17.4222 5.90598 16.7897 5.90598 15.7776C5.90598 14.5968 7.08677 13.7112 8.56276 13.7112C10.9243 13.7112 11.8099 15.2715 11.9786 16.4945L16.6596 15.4402C16.4066 13.2051 14.4245 9.4519 8.52059 9.4519C4.05046 9.4519 0.761115 12.5304 0.761115 16.2414C0.761115 19.1512 2.57447 21.555 6.58072 22.4406L9.32184 23.0732C10.9243 23.4105 11.5569 24.1696 11.5569 25.0974C11.5569 26.1938 10.6713 27.1637 8.81579 27.1637C6.36987 27.1637 5.1469 25.6456 5.02039 24.0009L0.212891 25.0552Z" fill="#C2A500"/>
<path d="M34.8366 30.8326H40.1924C40.108 30.1157 39.9815 28.6819 39.9815 27.0794V10.0845H34.3728V22.1454C34.3728 24.5491 32.939 26.236 30.4509 26.236C27.8363 26.236 26.6555 24.3805 26.6555 22.061V10.0845H21.0467V23.1997C21.0467 27.712 23.9143 31.3809 28.9327 31.3809C31.1256 31.3809 33.5293 30.5374 34.668 28.5976C34.668 29.441 34.7523 30.4109 34.8366 30.8326Z" fill="#C2A500"/>
<path d="M51.5759 38.8451V28.8084C52.588 30.2001 54.6966 31.3387 57.5642 31.3387C63.426 31.3387 67.3479 26.6999 67.3479 20.4164C67.3479 14.2594 63.8477 9.62059 57.7751 9.62059C54.6544 9.62059 52.335 11.0122 51.4072 12.6147V10.0845H45.9672V38.8451H51.5759ZM61.8235 20.4585C61.8235 24.1696 59.5463 26.3203 56.6786 26.3203C53.811 26.3203 51.4916 24.1274 51.4916 20.4585C51.4916 16.7897 53.811 14.6389 56.6786 14.6389C59.5463 14.6389 61.8235 16.7897 61.8235 20.4585Z" fill="#C2A500"/>
<path d="M70.5236 25.1817C70.5236 28.4289 73.2225 31.423 77.6505 31.423C80.729 31.423 82.711 29.9892 83.7653 28.3445C83.7653 29.1458 83.8496 30.2844 83.9761 30.8326H89.121C88.9945 30.1157 88.868 28.6397 88.868 27.5433V17.3379C88.868 13.163 86.4221 9.4519 79.8434 9.4519C74.2768 9.4519 71.2827 13.0364 70.9453 16.2836L75.9215 17.3379C76.0902 15.5245 77.4396 13.9642 79.8856 13.9642C82.2471 13.9642 83.3857 15.1872 83.3857 16.6632C83.3857 17.3801 83.0062 17.9705 81.8254 18.1391L76.7227 18.8982C73.2647 19.4043 70.5236 21.4707 70.5236 25.1817ZM78.8313 27.2481C77.0179 27.2481 76.1323 26.0673 76.1323 24.8443C76.1323 23.2418 77.271 22.4406 78.7048 22.2297L83.3857 21.5128V22.4406C83.3857 26.1095 81.1929 27.2481 78.8313 27.2481Z" fill="#C2A500"/>
<path d="M99.9616 30.8326V28.3024C101.058 30.0735 103.251 31.3387 106.119 31.3387C112.023 31.3387 115.902 26.6577 115.902 20.3742C115.902 14.2172 112.402 9.53624 106.329 9.53624C103.251 9.53624 100.974 10.8857 100.046 12.3617V0.300781H94.5215V30.8326H99.9616ZM110.294 20.4164C110.294 24.2118 108.016 26.3203 105.149 26.3203C102.323 26.3203 99.9616 24.1696 99.9616 20.4164C99.9616 16.621 102.323 14.5546 105.149 14.5546C108.016 14.5546 110.294 16.621 110.294 20.4164Z" fill="#C2A500"/>
<path d="M119.078 25.1817C119.078 28.4289 121.777 31.423 126.205 31.423C129.283 31.423 131.265 29.9892 132.32 28.3445C132.32 29.1458 132.404 30.2844 132.531 30.8326H137.675C137.549 30.1157 137.422 28.6397 137.422 27.5433V17.3379C137.422 13.163 134.976 9.4519 128.398 9.4519C122.831 9.4519 119.837 13.0364 119.5 16.2836L124.476 17.3379C124.645 15.5245 125.994 13.9642 128.44 13.9642C130.801 13.9642 131.94 15.1872 131.94 16.6632C131.94 17.3801 131.561 17.9705 130.38 18.1391L125.277 18.8982C121.819 19.4043 119.078 21.4707 119.078 25.1817ZM127.386 27.2481C125.572 27.2481 124.687 26.0673 124.687 24.8443C124.687 23.2418 125.825 22.4406 127.259 22.2297L131.94 21.5128V22.4406C131.94 26.1095 129.747 27.2481 127.386 27.2481Z" fill="#C2A500"/>
<path d="M141.305 25.0552C141.558 27.4168 143.708 31.4652 149.95 31.4652C155.39 31.4652 158.004 28.0072 158.004 24.6335C158.004 21.5972 155.938 19.1091 151.847 18.2657L148.896 17.6331C147.757 17.4222 146.998 16.7897 146.998 15.7776C146.998 14.5968 148.179 13.7112 149.655 13.7112C152.016 13.7112 152.902 15.2715 153.07 16.4945L157.751 15.4402C157.498 13.2051 155.516 9.4519 149.612 9.4519C145.142 9.4519 141.853 12.5304 141.853 16.2414C141.853 19.1512 143.666 21.555 147.673 22.4406L150.414 23.0732C152.016 23.4105 152.649 24.1696 152.649 25.0974C152.649 26.1938 151.763 27.1637 149.908 27.1637C147.462 27.1637 146.239 25.6456 146.112 24.0009L141.305 25.0552Z" fill="#C2A500"/>
<path d="M166.522 18.097C166.649 16.1993 168.251 14.0064 171.161 14.0064C174.366 14.0064 175.716 16.0306 175.8 18.097H166.522ZM176.348 23.4949C175.673 25.3504 174.24 26.6577 171.625 26.6577C168.842 26.6577 166.522 24.6757 166.396 21.9345H181.24C181.24 21.8502 181.324 21.0068 181.324 20.2055C181.324 13.5425 177.487 9.4519 171.077 9.4519C165.763 9.4519 160.871 13.7533 160.871 20.3742C160.871 27.3746 165.89 31.4652 171.583 31.4652C176.686 31.4652 179.975 28.471 181.029 24.8865L176.348 23.4949Z" fill="#C2A500"/>
<path d="M212.759 30.0596V26.1493H203.398V9.05656H199.31V30.0596H212.759ZM234.514 30.0596H238.957L230.959 9.05656H226.219L218.161 30.0596H222.487L224.234 25.2606H232.766L234.514 30.0596ZM228.5 13.5889L231.403 21.528H225.597L228.5 13.5889ZM253.004 30.5335C257.507 30.5335 261.092 27.7786 261.092 22.6241V9.05656H257.004V22.3279C257.004 25.0828 255.493 26.5344 253.004 26.5344C250.575 26.5344 249.035 25.0828 249.035 22.3279V9.05656H244.947V22.6241C244.947 27.7786 248.531 30.5335 253.004 30.5335ZM287.763 30.0596V9.05656H283.675V22.9499L274.936 9.05656H269.841V30.0596H273.929V15.159L283.468 30.0596H287.763ZM306.207 30.5039C312.102 30.5039 315.124 26.5936 315.923 23.3647L312.102 22.2094C311.539 24.1645 309.791 26.5048 306.207 26.5048C302.83 26.5048 299.69 24.046 299.69 19.5729C299.69 14.8035 303.008 12.5521 306.148 12.5521C309.791 12.5521 311.421 14.7739 311.924 16.7883L315.775 15.5737C314.946 12.167 311.954 8.61221 306.148 8.61221C300.519 8.61221 295.454 12.878 295.454 19.5729C295.454 26.2678 300.341 30.5039 306.207 30.5039ZM340.827 30.0596V9.05656H336.709V17.4992H327.556V9.05656H323.468V30.0596H327.556V21.3503H336.709V30.0596H340.827ZM369.474 23.572L364.794 9.05656H360.558L355.907 23.5128L352.056 9.05656H347.731L353.566 30.0596H357.832L362.631 15.0997L367.43 30.0596H371.637L377.443 9.05656H373.266L369.474 23.572ZM397.508 30.0596V26.2085H388.443V21.3503H396.649V17.7066H388.443V12.9076H397.508V9.05656H384.355V30.0596H397.508ZM418.897 30.0596V26.2085H409.832V21.3503H418.038V17.7066H409.832V12.9076H418.897V9.05656H405.744V30.0596H418.897ZM439.931 30.0596H445.056L436.672 18.2102L444.996 9.05656H439.635L431.221 18.5657V9.05656H427.133V30.0596H431.221V24.2238L433.828 21.3503L439.931 30.0596Z" fill="#C2A500"/>
<path fill-rule="evenodd" clip-rule="evenodd" d="M461.983 0C459.062 0 456.693 2.36836 456.693 5.28989V33.8553C456.693 36.7769 459.062 39.1452 461.983 39.1452H490.549C493.47 39.1452 495.839 36.7769 495.839 33.8553V5.2899C495.839 2.36837 493.47 0 490.549 0H461.983ZM475.649 29.4222C471.472 29.4222 468.569 26.5784 468.332 23.5568L472.153 22.6977C472.242 24.4751 473.605 25.9267 475.649 25.9267C477.486 25.9267 478.967 24.7121 478.967 22.7866C478.967 20.5945 477.338 19.5576 475.56 19.5576C474.257 19.5576 473.22 20.1501 472.598 20.8611C472.213 20.7129 469.28 19.7058 468.865 19.5873L471.146 9.72266H481.988V13.2478H473.931L472.983 17.484C473.812 16.7138 475.175 16.2991 476.449 16.2991C480.3 16.2991 483.025 18.6097 483.025 22.7273C483.025 26.3118 480.27 29.4222 475.649 29.4222Z" fill="#C2A500"/>
</svg>
