<svg width="496" height="40" viewBox="0 0 496 40" fill="none" xmlns="http://www.w3.org/2000/svg">
<path d="M0.117188 25.2288C0.370214 27.5904 2.52094 31.6388 8.76226 31.6388C14.2023 31.6388 16.8169 28.1808 16.8169 24.8071C16.8169 21.7708 14.7505 19.2827 10.66 18.4392L7.70798 17.8067C6.56936 17.5958 5.81028 16.9633 5.81028 15.9511C5.81028 14.7704 6.99107 13.8848 8.46706 13.8848C10.8286 13.8848 11.7142 15.4451 11.8829 16.6681L16.5639 15.6138C16.3109 13.3787 14.3288 9.62548 8.42489 9.62548C3.95475 9.62548 0.665411 12.704 0.665411 16.415C0.665411 19.3248 2.47877 21.7286 6.48502 22.6142L9.22614 23.2467C10.8286 23.5841 11.4612 24.3432 11.4612 25.2709C11.4612 26.3674 10.5756 27.3373 8.72008 27.3373C6.27416 27.3373 5.0512 25.8192 4.92469 24.1745L0.117188 25.2288Z" fill="white"/>
<path d="M34.7409 31.0062H40.0967C40.0123 30.2893 39.8858 28.8555 39.8858 27.253V10.2581H34.2771V22.319C34.2771 24.7227 32.8432 26.4096 30.3552 26.4096C27.7406 26.4096 26.5598 24.554 26.5598 22.2346V10.2581H20.951V23.3733C20.951 27.8856 23.8186 31.5544 28.837 31.5544C31.0299 31.5544 33.4336 30.711 34.5723 28.7711C34.5723 29.6146 34.6566 30.5845 34.7409 31.0062Z" fill="white"/>
<path d="M51.4802 39.0187V28.982C52.4923 30.3736 54.6009 31.5123 57.4685 31.5123C63.3303 31.5123 67.2522 26.8734 67.2522 20.59C67.2522 14.433 63.752 9.79417 57.6794 9.79417C54.5587 9.79417 52.2393 11.1858 51.3115 12.7883V10.2581H45.8715V39.0187H51.4802ZM61.7278 20.6321C61.7278 24.3432 59.4505 26.4939 56.5829 26.4939C53.7153 26.4939 51.3959 24.301 51.3959 20.6321C51.3959 16.9633 53.7153 14.8125 56.5829 14.8125C59.4505 14.8125 61.7278 16.9633 61.7278 20.6321Z" fill="white"/>
<path d="M70.4279 25.3553C70.4279 28.6025 73.1268 31.5966 77.5548 31.5966C80.6333 31.5966 82.6153 30.1628 83.6696 28.5181C83.6696 29.3194 83.7539 30.458 83.8804 31.0062H89.0253C88.8988 30.2893 88.7723 28.8133 88.7723 27.7169V17.5115C88.7723 13.3365 86.3264 9.62548 79.7477 9.62548C74.1811 9.62548 71.187 13.21 70.8496 16.4572L75.8258 17.5115C75.9945 15.6981 77.3439 14.1378 79.7898 14.1378C82.1514 14.1378 83.29 15.3607 83.29 16.8367C83.29 17.5536 82.9105 18.144 81.7297 18.3127L76.627 19.0718C73.169 19.5779 70.4279 21.6442 70.4279 25.3553ZM78.7356 27.4217C76.9222 27.4217 76.0366 26.2409 76.0366 25.0179C76.0366 23.4154 77.1752 22.6142 78.6091 22.4033L83.29 21.6864V22.6142C83.29 26.2831 81.0972 27.4217 78.7356 27.4217Z" fill="white"/>
<path d="M99.8659 31.0062V28.4759C100.962 30.2471 103.155 31.5123 106.023 31.5123C111.927 31.5123 115.807 26.8313 115.807 20.5478C115.807 14.3908 112.306 9.70983 106.234 9.70983C103.155 9.70983 100.878 11.0593 99.9503 12.5353V0.474365H94.4258V31.0062H99.8659ZM110.198 20.59C110.198 24.3854 107.921 26.4939 105.053 26.4939C102.227 26.4939 99.8659 24.3432 99.8659 20.59C99.8659 16.7946 102.227 14.7282 105.053 14.7282C107.921 14.7282 110.198 16.7946 110.198 20.59Z" fill="white"/>
<path d="M118.982 25.3553C118.982 28.6025 121.681 31.5966 126.109 31.5966C129.188 31.5966 131.17 30.1628 132.224 28.5181C132.224 29.3194 132.308 30.458 132.435 31.0062H137.58C137.453 30.2893 137.327 28.8133 137.327 27.7169V17.5115C137.327 13.3365 134.881 9.62548 128.302 9.62548C122.735 9.62548 119.741 13.21 119.404 16.4572L124.38 17.5115C124.549 15.6981 125.898 14.1378 128.344 14.1378C130.706 14.1378 131.844 15.3607 131.844 16.8367C131.844 17.5536 131.465 18.144 130.284 18.3127L125.181 19.0718C121.723 19.5779 118.982 21.6442 118.982 25.3553ZM127.29 27.4217C125.477 27.4217 124.591 26.2409 124.591 25.0179C124.591 23.4154 125.73 22.6142 127.163 22.4033L131.844 21.6864V22.6142C131.844 26.2831 129.652 27.4217 127.29 27.4217Z" fill="white"/>
<path d="M141.209 25.2288C141.462 27.5904 143.613 31.6388 149.854 31.6388C155.294 31.6388 157.909 28.1808 157.909 24.8071C157.909 21.7708 155.842 19.2827 151.752 18.4392L148.8 17.8067C147.661 17.5958 146.902 16.9633 146.902 15.9511C146.902 14.7704 148.083 13.8848 149.559 13.8848C151.92 13.8848 152.806 15.4451 152.975 16.6681L157.656 15.6138C157.403 13.3787 155.421 9.62548 149.517 9.62548C145.047 9.62548 141.757 12.704 141.757 16.415C141.757 19.3248 143.571 21.7286 147.577 22.6142L150.318 23.2467C151.92 23.5841 152.553 24.3432 152.553 25.2709C152.553 26.3674 151.667 27.3373 149.812 27.3373C147.366 27.3373 146.143 25.8192 146.017 24.1745L141.209 25.2288Z" fill="white"/>
<path d="M166.427 18.2706C166.553 16.3729 168.156 14.18 171.065 14.18C174.27 14.18 175.62 16.2042 175.704 18.2706H166.427ZM176.253 23.6684C175.578 25.524 174.144 26.8313 171.529 26.8313C168.746 26.8313 166.427 24.8492 166.3 22.1081H181.144C181.144 22.0238 181.229 21.1804 181.229 20.3791C181.229 13.7161 177.391 9.62548 170.981 9.62548C165.668 9.62548 160.776 13.9269 160.776 20.5478C160.776 27.5482 165.794 31.6388 171.487 31.6388C176.59 31.6388 179.879 28.6446 180.934 25.0601L176.253 23.6684Z" fill="white"/>
<path d="M212.664 30.2332V26.323H203.303V9.23024H199.215V30.2332H212.664ZM234.419 30.2332H238.862L230.864 9.23024H226.124L218.067 30.2332H222.392L224.139 25.4343H232.671L234.419 30.2332ZM228.405 13.7626L231.308 21.7017H225.502L228.405 13.7626ZM252.91 30.7072C257.412 30.7072 260.997 27.9522 260.997 22.7978V9.23024H256.909V22.5015C256.909 25.2565 255.398 26.7081 252.91 26.7081C250.48 26.7081 248.94 25.2565 248.94 22.5015V9.23024H244.852V22.7978C244.852 27.9522 248.436 30.7072 252.91 30.7072ZM287.669 30.2332V9.23024H283.58V23.1236L274.842 9.23024H269.746V30.2332H273.834V15.3327L283.373 30.2332H287.669ZM306.112 30.6776C312.007 30.6776 315.029 26.7673 315.829 23.5384L312.007 22.383C311.444 24.3382 309.697 26.6784 306.112 26.6784C302.735 26.6784 299.595 24.2197 299.595 19.7466C299.595 14.9772 302.913 12.7258 306.053 12.7258C309.697 12.7258 311.326 14.9476 311.829 16.962L315.68 15.7474C314.851 12.3407 311.859 8.78589 306.053 8.78589C300.424 8.78589 295.359 13.0517 295.359 19.7466C295.359 26.4414 300.247 30.6776 306.112 30.6776ZM340.732 30.2332V9.23024H336.615V17.6729H327.461V9.23024H323.373V30.2332H327.461V21.524H336.615V30.2332H340.732ZM369.379 23.7457L364.699 9.23024H360.463L355.812 23.6865L351.961 9.23024H347.636L353.472 30.2332H357.737L362.536 15.2734L367.335 30.2332H371.542L377.348 9.23024H373.171L369.379 23.7457ZM397.413 30.2332V26.3822H388.349V21.524H396.554V17.8803H388.349V13.0813H397.413V9.23024H384.261V30.2332H397.413ZM418.802 30.2332V26.3822H409.738V21.524H417.943V17.8803H409.738V13.0813H418.802V9.23024H405.65V30.2332H418.802ZM439.836 30.2332H444.961L436.577 18.3839L444.902 9.23024H439.54L431.127 18.7394V9.23024H427.039V30.2332H431.127V24.3974L433.734 21.524L439.836 30.2332Z" fill="#3FCF8E"/>
<rect x="456.598" y="0.17395" width="39.1452" height="39.1452" rx="5.2899" fill="white"/>
<path d="M468.234 23.7309C468.471 26.7525 471.374 29.5963 475.551 29.5963C480.173 29.5963 482.928 26.4858 482.928 22.9014C482.928 18.7838 480.202 16.4731 476.351 16.4731C475.077 16.4731 473.715 16.8879 472.885 17.6581L473.833 13.4219H481.891V9.89673H471.049L468.768 19.7613C469.182 19.8798 472.115 20.887 472.5 21.0351C473.122 20.3242 474.159 19.7317 475.462 19.7317C477.24 19.7317 478.869 20.7685 478.869 22.9607C478.869 24.8862 477.388 26.1007 475.551 26.1007C473.507 26.1007 472.145 24.6492 472.056 22.8718L468.234 23.7309Z" fill="url(#paint0_linear_546_9072)"/>
<defs>
<linearGradient id="paint0_linear_546_9072" x1="471.673" y1="-44.0801" x2="499.414" y2="-41.2006" gradientUnits="userSpaceOnUse">
<stop stop-color="#317E7E"/>
<stop offset="0.973958" stop-color="#628AAB"/>
</linearGradient>
</defs>
</svg>
